<svg xmlns="http://www.w3.org/2000/svg" xmlns:xlink="http://www.w3.org/1999/xlink" width="60" height="60" version="1.1" viewBox="0 0 60 60"><title>Slice 1</title><description>Created with Sketch (http://www.bohemiancoding.com/sketch)</description><g id="Page-1" fill="none" fill-rule="evenodd" stroke="none" stroke-width="1"><g id="icon_Connect1"><g id="Layer_54" fill="#000"><g id="Group"><path id="Shape" d="M36,32.25 C35.25,33 34.5,33.375 34.125,34.125 C31.875,36 30,38.25 28.125,40.125 C25.125,37.5 22.5,34.5 19.875,31.875 L21.375,30.375 L27.75,24 C28.5,23.25 28.5,22.125 27.75,21.375 C27.375,20.625 26.25,20.625 25.5,21.375 C25.125,21.75 24.75,22.125 24.375,22.125 L16.875,29.625 C16.125,28.5 15.375,27.75 14.25,26.625 C12,29.25 9.375,31.5 7.5,34.125 C5.625,36.375 5.25,39 5.625,42 C5.625,44.25 6.75,46.5 7.875,48.375 L0.375,55.875 L4.125,59.625 L11.625,52.125 C16.125,54.75 20.625,55.125 25.5,52.5 C28.875,50.625 30.75,47.625 33.75,45 C32.625,44.25 31.875,43.125 30.75,42.375 L34.125,39 C35.625,37.5 37.125,36 39,34.5 C39.75,33.75 40.125,32.625 39.375,31.875 C37.875,31.5 36.75,31.5 36,32.25 L36,32.25 Z"/><path id="Shape" d="M60,3.75 L56.25,0 L48.75,7.5 C48.375,7.5 48.375,7.125 48,7.125 C43.5,4.875 38.625,4.5 34.125,7.5 C31.5,9.375 29.25,12 27,14.25 L45.75,33 C47.625,31.125 49.5,29.625 51.375,27.375 C53.625,24.75 54.75,21.375 54.375,18 C54.375,15.75 53.625,13.5 52.125,11.625 L60,3.75 L60,3.75 Z"/></g></g></g></g></svg>