<svg xmlns="http://www.w3.org/2000/svg" xmlns:xlink="http://www.w3.org/1999/xlink" width="60" height="60" version="1.1" viewBox="0 0 60 60"><title>Slice 1</title><description>Created with Sketch (http://www.bohemiancoding.com/sketch)</description><g id="Page-1" fill="none" fill-rule="evenodd" stroke="none" stroke-width="1"><g id="icon_Settings"><g id="Layer_63" fill="#000"><path id="Shape" d="M39.5,9.5 C39,9.5 38.5,9 38,9 C37.5,9 37,8.5 36.5,8.5 L34.5,0.5 C31,1.38777878e-17 28,1.38777878e-17 24.5,0.5 L22.5,9 C21.5,9 20.5,9.5 19.5,10 L12,6 C9.5,8 7,10 5.5,13 L10,20.5 C10,21 9.5,21.5 9.5,22 C9.5,22.5 9,23 9,23.5 L0.5,25.5 C1.38777878e-17,29 1.38777878e-17,32 0.5,35.5 L9,37.5 C9,38.5 9.5,39.5 10,40.5 L6,48 C8,50.5 10.5,53 13,55 L20.5,50.5 C21,50.5 21.5,51 22,51 C22.5,51 23,51.5 23.5,51.5 L26,59.5 C29.5,60 32.5,60 35.5,59.5 L37.5,51 L40.5,49.5 L48,53.5 C50.5,51.5 53,49 55,46.5 L50.5,39 C50.5,38.5 51,38 51,37.5 C51,37 51.5,36.5 51.5,36 L59.5,33.5 C60,30 60,27 59.5,24 L51,22 L49.5,19 L53.5,11.5 C51.5,9 49,6.5 46.5,4.5 L39.5,9.5 L39.5,9.5 Z M40.5,34 C38,39.5 31.5,42.5 26,40.5 C20.5,38 17.5,31.5 19.5,26 C21.5,20.5 28,17.5 34,20 C39.5,22 42.5,28.5 40.5,34 L40.5,34 Z"/></g></g></g></svg>