<svg xmlns="http://www.w3.org/2000/svg" xmlns:xlink="http://www.w3.org/1999/xlink" width="106" height="106" version="1.1"><title>drop-all-album</title><description>Created with Sketch (http://www.bohemiancoding.com/sketch)</description><defs><linearGradient id="linearGradient-1" x1="50%" x2="50%" y1="0%" y2="173.921%"><stop offset="0%" stop-color="#7B7D79"/><stop offset="100%" stop-color="#000"/></linearGradient><radialGradient id="radialGradient-2" cx="50%" cy="50%" r="100%" fx="50%" fy="50%"><stop offset="0%" stop-color="#FEFFFE"/><stop offset="100%" stop-color="#000"/></radialGradient><path id="path-3" d="M53.1408451,70.0422535 C62.4752357,70.0422535 70.0422535,62.4752357 70.0422535,53.1408451 C70.0422535,43.8064545 62.4752357,36.2394366 53.1408451,36.2394366 C43.8064545,36.2394366 36.2394366,43.8064545 36.2394366,53.1408451 C36.2394366,62.4752357 43.8064545,70.0422535 53.1408451,70.0422535 Z M53,103 C25.3857611,103 3,80.6142389 3,53 C3,25.3857611 25.3857611,3 53,3 C80.6142389,3 103,25.3857611 103,53 C103,65.1628884 98.6571066,76.311439 91.4374063,84.9795662 C82.2657261,95.9912818 68.4513504,103 53,103 Z M53,103"/></defs><g id="Page 1" fill="#D7D7D7" fill-rule="evenodd"><g id="Group" fill="url(#linearGradient-1)"><use id="Oval 1" stroke="#31363A" stroke-width="6" xlink:href="#path-3"/><use id="Oval 1-1" fill="none" stroke="none" xlink:href="#path-3"/><path id="Oval 2" fill="#898989" stroke="#969696" stroke-width="1" d="M53.1408451,70.0422535 C43.8064545,70.0422535 36.2394366,62.4752357 36.2394366,53.1408451 C36.2394366,43.8064545 43.8064545,36.2394366 53.1408451,36.2394366 C62.4752357,36.2394366 70.0422535,43.8064545 70.0422535,53.1408451 C70.0422535,62.4752357 62.4752357,70.0422535 53.1408451,70.0422535 Z M53.2816901,60.4647887 C57.4043793,60.4647887 60.7464789,57.1857477 60.7464789,53.1408451 C60.7464789,49.0959425 57.4043793,45.8169014 53.2816901,45.8169014 C49.159001,45.8169014 45.8169014,49.0959425 45.8169014,53.1408451 C45.8169014,57.1857477 49.159001,60.4647887 53.2816901,60.4647887 Z M53.2816901,60.4647887"/></g></g></svg>