<svg xmlns="http://www.w3.org/2000/svg" xmlns:xlink="http://www.w3.org/1999/xlink" width="60" height="60" version="1.1" viewBox="0 0 60 60"><title>Slice 1</title><description>Created with Sketch (http://www.bohemiancoding.com/sketch)</description><g id="Page-1" fill="none" fill-rule="evenodd" stroke="none" stroke-width="1"><g id="love" transform="translate(0.000000, 1.000000)"><g id="Page-1"><g id="loved"><g id="Layer_29" fill="#000" transform="translate(0.000000, 5.000000)"><path id="Shape" d="M56.5,24 C58,22.5 60,18.5 60,16 L60,13.5 C60,11 58.5,7 56.5,5 L55,3.5 C52.5,1.5 49,0 46,0 L43.5,0 C41,0 37,1.5 35,3.5 L30,8.5 L25,3.5 C23,1.5 19,0 16.5,0 L14,0 C11,0 7.5,1.5 5.5,3.5 L3.5,5 C2,7 0,11 0,13.5 L0,15.5 C0,18 1.5,22 3.5,24 L30,50 L56.5,24 L56.5,24 Z"/></g></g></g></g></g></svg>