<svg xmlns="http://www.w3.org/2000/svg" xmlns:xlink="http://www.w3.org/1999/xlink" width="60" height="60" version="1.1" viewBox="0 0 60 60"><title>Slice 1</title><description>Created with Sketch (http://www.bohemiancoding.com/sketch)</description><g id="Page-1" fill="none" fill-rule="evenodd" stroke="none" stroke-width="1"><g id="station" transform="translate(0.000000, 6.000000)"><g id="Page-1"><g id="station"><g id="Page-1"><g id="station"><g id="Page-1"><g id="station"><g id="Page-1"><g id="station"><g id="Page-1"><g id="station"><g id="Layer_30" fill="#000"><g id="Group"><path id="Shape" d="M30,14.2857143 C21.4285714,14.2857143 14.1428572,22.0779221 14.1428572,31.1688312 L18.4285714,31.1688312 C18.4285714,24.2424242 23.5714286,19.047619 30.4285714,19.047619 C36.8571428,19.047619 42.4285714,24.6753247 42.4285714,31.1688312 L46.7142857,31.1688312 C46.2857143,22.0779221 39,14.2857143 30,14.2857143 L30,14.2857143 L30,14.2857143 Z"/><path id="Shape" d="M30,0 C13.7142857,0 0,13.8528139 0,31.1688312 L4.28571428,31.1688312 C4.28571428,16.4502164 15.8571428,4.32900433 30,4.32900433 C44.1428572,4.32900433 55.7142857,16.4502164 55.7142857,31.1688312 L60,31.1688312 C60.4285716,13.8528139 46.7142857,0 30,0 L30,0 L30,0 Z"/><ellipse id="Oval" cx="30.714" cy="34.762" rx="4.714" ry="4.762"/></g></g></g></g></g></g></g></g></g></g></g></g></g></g></svg>